<svg xmlns="http://www.w3.org/2000/svg" fill="none" viewBox="0 0 1024 1024" height="1024" width="1024">
<g clip-path="url(#clip0_1519_111741)">
<ellipse fill="url(#paint0_linear_1519_111741)" ry="127.5" rx="467" cy="762.5" cx="506"></ellipse>
<path fill="url(#paint1_linear_1519_111741)" d="M230.457 615.502C230.457 615.502 230.233 614.922 229.928 615.542C227.184 621.122 202.334 681.566 200.362 728.218C200.362 728.218 196.215 755.02 230.965 754.665C259.973 754.37 259.2 729.662 259.099 721.337C258.702 687.573 230.457 615.502 230.457 615.502Z"></path>
<path fill="url(#paint2_linear_1519_111741)" d="M229.664 784.343C229.105 784.343 228.647 783.886 228.647 783.327V631.754C228.647 631.195 229.105 630.737 229.664 630.737C230.223 630.737 230.68 631.195 230.68 631.754V783.327C230.68 783.896 230.223 784.343 229.664 784.343Z"></path>
<path fill="url(#paint3_linear_1519_111741)" d="M869.35 810.661C876.541 808.4 883.517 805.446 889.874 797.176C891.178 795.482 892.404 793.311 891.689 791.283C891.151 789.757 889.594 788.778 888.013 788.529C887.424 788.442 886.827 788.426 886.234 788.48H886.228C885.316 788.574 884.415 788.754 883.536 789.015L883.285 789.089C879.09 790.299 875.093 792.13 871.425 794.524C871.093 794.738 870.698 794.833 870.306 794.792C869.914 794.75 869.548 794.576 869.266 794.296C868.984 794.017 868.804 793.649 868.754 793.252C868.704 792.855 868.789 792.453 868.993 792.111C869.367 791.491 869.803 790.911 870.292 790.38C871.015 789.613 871.807 788.916 872.657 788.299C873.788 787.462 874.994 786.715 876.174 785.951C880.562 783.116 884.719 779.929 888.605 776.42C891.378 773.913 894.091 771.131 895.409 767.607C896.015 765.986 896.291 764.117 895.568 762.547C894.376 759.968 890.999 759.245 888.237 759.78C883.398 760.721 879.532 764.32 876.104 767.908C873.261 770.889 870.075 774.189 865.99 774.372C865.294 774.439 864.594 774.296 863.977 773.963C862.812 773.247 862.512 771.588 862.927 770.271C863.343 768.953 864.304 767.901 865.231 766.89C870.623 761.021 875.928 754.916 879.429 747.725C882.93 740.534 884.481 732.044 882.048 724.409C881.335 722.177 880.263 720.005 878.591 718.383C876.919 716.762 874.575 715.745 872.28 716.056C869.153 716.473 866.798 719.15 865.213 721.915C859.768 731.401 860.101 743.025 858.567 753.891C858.138 756.933 857.514 760.053 855.728 762.557C855.563 762.798 855.35 763 855.101 763.15C853.632 764.013 852.313 762.272 851.761 760.795C849.583 754.95 849.038 748.265 845.139 743.427C843.65 741.585 841.544 740.046 839.197 740.061C836.331 740.081 833.877 742.51 833.04 745.292C832.204 748.074 832.705 751.096 833.601 753.858C835.264 758.98 838.245 763.582 841.759 767.627C843.61 769.763 845.705 771.92 846.261 774.706C846.431 775.653 846.36 776.628 846.054 777.539C845.748 778.45 845.218 779.267 844.513 779.912C844.184 780.202 843.801 780.423 843.386 780.561C842.971 780.699 842.533 780.75 842.098 780.713C841.157 780.626 840.306 780.139 839.484 779.666C839.139 779.467 838.794 779.265 838.447 779.067C837.077 778.276 835.707 777.483 834.336 776.69C830.851 774.674 826.646 772.614 823.018 774.35C821.167 775.238 819.954 776.983 819.383 778.986C818.872 780.804 818.872 782.73 819.383 784.548C820.464 788.328 827.276 798.848 830.086 801.561C833.368 804.729 844.748 818.398 869.35 810.661Z"></path>
<path fill="url(#paint4_linear_1519_111741)" d="M746 643H280V688V690H280.448C287.965 706.741 389.208 720 513 720C636.792 720 738.035 706.741 745.552 690H746V688V643Z" clip-rule="evenodd" fill-rule="evenodd"></path>
<ellipse fill="url(#paint5_linear_1519_111741)" ry="32" rx="233" cy="643" cx="513"></ellipse>
<ellipse fill="url(#paint6_linear_1519_111741)" ry="32" rx="233" cy="643" cx="513"></ellipse>
<path fill="#6CB8FF" d="M715.33 659.88C675.169 669.511 599.602 676 513 676C427.193 676 352.219 669.63 311.784 660.145C317.678 642.782 405.783 629 513.605 629C620.88 629 708.637 642.643 715.33 659.88Z" clip-rule="evenodd" fill-rule="evenodd"></path>
<path stroke-dasharray="2 2" stroke-width="2" stroke="url(#paint7_linear_1519_111741)" d="M675 291C658.333 278.667 577.6 258.199 534 314.999C479.5 385.999 423.5 457.5 312.5 414"></path>
<path fill="url(#paint8_linear_1519_111741)" d="M646.597 347.584L512.477 305L378.402 347.584C373.361 349.175 369.956 353.866 370 359.171V528.666C370.269 529.817 376.591 557.719 404.005 584.737C425.095 605.519 475.686 632.232 497.753 643.815C501.199 645.63 502.839 646.293 504.296 647.086L510.842 650.357C512.566 651.285 515.663 651.244 517.388 650.357L523.933 647.086C536.843 640.764 596.584 608.749 620.95 584.737C648.411 557.719 654.734 529.817 654.998 528.666V359.171C655.084 353.866 651.638 349.175 646.597 347.584V347.584ZM514.157 624.091L514.068 624.047H514.288C514.202 624.091 514.157 624.091 514.157 624.091ZM546.127 525.615H524.459V556.128C524.459 563.203 518.71 568.952 511.635 568.952C504.56 568.952 498.811 563.203 498.811 556.128V477.416C498.811 477.151 498.856 476.932 498.856 476.708C496.513 476 494.169 475.158 491.826 474.1C483.912 470.475 477.147 463.974 472.635 456.59C467.948 448.896 465.47 439.254 466.223 430.234C467.106 419.933 470.82 410.954 477.411 402.951C488.819 389.11 509.78 383.496 526.582 389.64C536.09 393.134 543.828 398.972 549.667 407.195C554.797 414.404 557.405 423.379 557.628 432.179C557.628 432.444 557.673 432.663 557.628 432.932C557.628 433.241 557.628 433.55 557.584 433.859C556.965 453.404 543.523 471.842 524.418 476.932V499.438H546.086C553.161 499.438 558.91 505.187 558.91 512.262V512.791H558.955C558.951 519.866 553.202 525.615 546.127 525.615V525.615Z"></path>
<path fill="url(#paint9_linear_1519_111741)" d="M527.247 444.561C527.378 444.341 527.512 444.162 527.556 444.117C528.319 442.949 529.013 441.737 529.635 440.488C530.209 438.853 530.652 437.217 531.006 435.492C531.051 434.654 531.096 433.767 531.14 432.925C531.14 432.083 531.096 431.2 531.006 430.362C530.697 428.682 530.209 427.002 529.635 425.366C529.119 424.325 528.559 423.307 527.955 422.315C527.821 422.181 527.512 421.741 526.983 420.899C526.498 420.366 526.01 419.792 525.481 419.308C524.863 418.69 524.2 418.071 523.492 417.494C523.272 417.363 523.097 417.229 523.048 417.184C521.881 416.422 520.671 415.728 519.423 415.106C517.788 414.532 516.152 414.088 514.472 413.735C512.747 413.604 511.022 413.604 509.297 413.735C507.617 414.044 505.936 414.532 504.346 415.106C503.305 415.622 502.287 416.182 501.294 416.786C501.16 416.92 500.72 417.229 499.878 417.758C499.346 418.243 498.772 418.731 498.288 419.26C497.669 419.878 497.051 420.541 496.473 421.249C496.343 421.469 496.209 421.648 496.164 421.693C495.402 422.86 494.708 424.07 494.085 425.318C493.511 426.953 493.068 428.589 492.714 430.269C492.584 431.994 492.584 433.719 492.714 435.444C493.023 437.124 493.511 438.804 494.085 440.395C494.614 441.457 495.147 442.43 495.765 443.447C495.899 443.581 496.209 444.02 496.738 444.862C497.222 445.395 497.71 445.969 498.239 446.453C498.858 447.072 499.521 447.69 500.229 448.268C500.448 448.398 500.627 448.532 500.672 448.577C501.82 449.329 503.06 450.037 504.297 450.656C505.933 451.23 507.568 451.673 509.248 452.027C510.973 452.161 512.698 452.161 514.423 452.027C516.104 451.718 517.784 451.23 519.375 450.656C520.437 450.127 521.409 449.594 522.426 448.976C522.56 448.841 523 448.532 523.842 448.003C524.416 447.56 524.948 447.075 525.433 446.543C526.055 445.932 526.673 445.268 527.247 444.561V444.561Z"></path>
<path fill="url(#paint10_linear_1519_111741)" d="M283.628 300.721L287.986 298.808C290.424 297.737 293.261 298.843 294.309 301.23L309.728 336.353C310.775 338.74 309.669 341.577 307.231 342.647L259.086 363.782C256.699 364.83 253.862 363.724 252.815 361.338L237.396 326.214C236.348 323.828 237.454 320.991 239.841 319.943L244.199 318.03L240.35 309.262C235.521 298.264 240.44 285.647 251.387 280.841C262.339 276.033 274.951 280.955 279.779 291.953L283.628 300.721ZM250.787 315.138L277.039 303.613L273.19 294.846C271.66 291.36 268.811 288.622 265.266 287.232C261.722 285.842 257.771 285.914 254.279 287.43C247.068 290.596 243.75 299.107 246.938 306.37L250.787 315.138ZM273.724 340.607C278.694 340.607 282.724 336.578 282.724 331.607C282.724 326.637 278.694 322.607 273.724 322.607C268.753 322.607 264.724 326.637 264.724 331.607C264.724 336.578 268.753 340.607 273.724 340.607Z" clip-rule="evenodd" fill-rule="evenodd"></path>
<path fill="url(#paint11_linear_1519_111741)" d="M635.846 560.625L617.075 563.585L620.081 582.648L638.852 579.688L635.846 560.625Z"></path>
<path fill="url(#paint12_linear_1519_111741)" d="M633.163 567.203C643.273 564.39 648.837 552.65 645.59 540.982C642.343 529.314 631.514 522.136 621.404 524.949C611.293 527.763 605.729 539.503 608.976 551.171C612.223 562.839 623.052 570.017 633.163 567.203Z"></path>
<path fill="url(#paint13_linear_1519_111741)" d="M596.218 518.201C599.64 517.249 603.155 518.306 605.534 520.668C611.084 516.845 619.344 513.991 630.379 517.648C632.081 518.371 633.661 519.222 635.039 520.238C642.087 524.439 644.414 534.081 643.789 535.284C643.5 535.839 641.928 536.598 639.644 537.7C635.807 539.552 629.961 542.374 624.815 546.83C623.622 547.955 622.55 548.975 621.683 549.868C621.683 549.868 621.682 549.868 621.682 549.869C621.681 549.868 621.681 549.867 621.68 549.866C621.67 549.86 621.66 549.854 621.651 549.848C621.586 549.93 621.524 550.013 621.463 550.096C621.305 550.005 621.114 549.886 620.896 549.749C618.815 548.445 614.234 545.572 612.047 551.302C611.288 558.586 617.899 560.808 620.107 559.375C620.004 562.328 617.144 564.171 617.144 564.171C617.159 564.157 617.126 564.169 617.049 564.197C616.413 564.431 612.736 565.781 607.446 562.979C600.325 558.919 594.231 553.378 594.588 536.292C592.23 535.096 590.356 532.935 589.585 530.164C588.142 524.978 591.111 519.622 596.218 518.201Z" clip-rule="evenodd" fill-rule="evenodd"></path>
<rect fill="#FEE4C3" transform="rotate(-3.34458 695.672 756.005)" height="10.7363" width="8.05224" y="756.005" x="695.672"></rect>
<path fill="#4F538F" d="M714.921 770.851C714.47 774.529 709.988 774.301 704.103 773.579C698.217 772.857 691.928 772.085 691.086 767.925C691.126 768.107 690.081 765.098 694.567 761.592C694.567 761.592 698.236 764.747 703.892 762.736C708.965 764.397 715.257 768.111 714.921 770.851Z"></path>
<rect fill="#FEE4C3" transform="rotate(-3.08897 721.521 741.269)" height="10.7363" width="8.05224" y="741.269" x="721.521"></rect>
<path fill="#4F538F" d="M742.095 757.51C741.595 761.182 737.117 760.895 731.242 760.095C725.366 759.295 719.087 758.44 718.301 754.27C718.338 754.453 717.333 751.429 721.865 747.983C721.865 747.983 725.492 751.186 731.174 749.251C736.224 750.978 742.467 754.774 742.095 757.51Z"></path>
<path fill="#C7DCFF" d="M627.4 663.433C627.4 663.433 633.283 685.135 698.58 684.024C698.58 684.024 702.219 708.889 718.752 742.782L730.485 744.336L719.983 678.67C719.534 675.836 718.369 673.162 716.596 670.901C714.824 668.64 712.504 666.867 709.854 665.748C697.334 660.503 657.217 653.767 657.217 653.767L627.4 663.433Z"></path>
<path fill="#D1E2FF" d="M618.182 661.873C618.182 661.873 616.733 692.43 683.127 697.98C683.127 697.98 683.127 724.21 694.522 759.56L705.349 760.145L706.439 693.646C706.509 690.765 705.843 687.913 704.504 685.361C703.166 682.809 701.199 680.641 698.79 679.061C687.465 671.641 649.213 657.719 649.213 657.719L618.182 661.873Z"></path>
<path fill="url(#paint14_linear_1519_111741)" d="M704.357 641.262C703.472 644.132 700.417 643.674 695.668 642.701C690.92 641.728 686.077 639.943 686.776 636.533C687.474 633.124 692.635 631.025 697.384 631.998C707.682 628.467 713.407 638.404 704.357 641.262Z"></path>
<path fill="url(#paint15_linear_1519_111741)" d="M588.095 674.104C590.945 675.052 592.348 672.299 594.316 667.869C596.283 663.439 597.645 658.461 594.464 657.048C591.283 655.635 586.576 658.615 584.608 663.046C575.751 669.375 580.511 679.808 588.095 674.104Z"></path>
<path fill="url(#paint16_linear_1519_111741)" d="M636.999 571.641C636.999 571.641 646.719 573.535 651.601 579.193C659.645 588.52 666.209 605.643 666.209 605.643C666.209 605.643 667.395 610.987 672.831 617.95C678.746 625.524 680.559 626.295 680.559 626.295C680.559 626.295 687.752 629.534 689.573 629.616C691.795 629.717 697.222 631.102 697.222 631.102L695.508 642.035C695.508 642.035 681.177 643.085 670.542 640.318C662.597 638.248 658.253 629.978 658.253 629.978L636.999 571.641Z" clip-rule="evenodd" fill-rule="evenodd"></path>
<path fill="url(#paint17_linear_1519_111741)" d="M637.128 570.443C631.038 580.09 622.068 575.529 618.345 572.043C617.903 572.113 614.874 574.163 611.431 579.919C606.053 588.911 613.327 640.709 617.069 667.271C637.691 665.834 678.194 661.72 675.234 656.756C671.535 650.55 661.978 607.257 658.559 594.22C657.198 589.031 648.369 572.746 637.128 570.443Z"></path>
<path fill="url(#paint18_linear_1519_111741)" d="M596.674 590.489C598.393 584.193 608.314 577.973 615.477 574.398C616.82 577.08 618.163 594.512 614.134 601.217C610.104 607.921 608.761 633.4 607.418 636.081C606.457 638.001 600.702 657.537 595.331 665.582C593.987 665.137 588.885 662.906 584.586 662.906C584.586 660.224 588.615 638.763 591.301 633.4C593.103 629.801 592.645 605.24 596.674 590.489Z"></path>
<path fill="#5B7EFB" d="M640.071 571.421C640.071 571.421 638.536 570.305 637.21 570.514C631.195 578.781 622.325 575.094 618.442 572.115C618.296 571.998 617.116 572.323 616 573.858C629.338 582.624 637.605 575.886 640.071 571.421Z"></path>
<path fill="url(#paint19_linear_1519_111741)" d="M735.974 316.639L693.463 325.433C692.929 325.54 692.428 325.409 691.971 325.052C691.745 324.862 691.562 324.619 691.45 324.327C691.376 324.136 691.34 323.909 691.34 323.653L691.577 311.168C691.589 310.483 691.154 309.872 690.506 309.657L681.488 306.693C680.966 306.534 680.604 306.181 680.398 305.649C680.312 305.426 680.275 305.22 680.279 305.03C680.276 304.655 680.369 304.315 680.583 304.002C680.792 303.691 681.066 303.465 681.416 303.329L689.447 300.223C690.12 299.962 690.856 299.944 691.544 300.165L726.715 311.633L692.333 293.37C692.074 293.23 691.911 292.958 691.919 292.667L692.145 281.249C692.138 280.514 692.475 279.981 693.177 279.657C693.855 279.353 694.477 279.431 695.038 279.895L736.734 313.503C736.995 313.706 737.173 313.951 737.288 314.247C737.424 314.597 737.445 314.95 737.361 315.302C737.175 316.038 736.701 316.478 735.974 316.639Z"></path>
</g>
<defs>
<linearGradient gradientUnits="userSpaceOnUse" y2="890" x2="506" y1="635" x1="506" id="paint0_linear_1519_111741">
<stop stop-color="#BDDFFF"></stop>
<stop stop-opacity="0" stop-color="white" offset="0.95892"></stop>
</linearGradient>
<linearGradient gradientUnits="userSpaceOnUse" y2="615.257" x2="229.66" y1="754.678" x1="229.66" id="paint1_linear_1519_111741">
<stop stop-color="#5FB2FF"></stop>
<stop stop-color="#DFF0FF" offset="0.7893"></stop>
</linearGradient>
<linearGradient gradientUnits="userSpaceOnUse" y2="784.347" x2="229.661" y1="630.738" x1="229.661" id="paint2_linear_1519_111741">
<stop stop-color="#DFF0FF"></stop>
<stop stop-color="#A2D2FF" offset="0.818"></stop>
</linearGradient>
<linearGradient gradientUnits="userSpaceOnUse" y2="802.968" x2="847.534" y1="720.042" x1="883.842" id="paint3_linear_1519_111741">
<stop stop-color="#C4E3FF" offset="0.365159"></stop>
<stop stop-color="#5FB2FF" offset="1"></stop>
</linearGradient>
<linearGradient gradientUnits="userSpaceOnUse" y2="792.448" x2="593.828" y1="636" x1="647.958" id="paint4_linear_1519_111741">
<stop stop-color="#C9E7FF"></stop>
<stop stop-color="#B0D9FF" offset="1"></stop>
</linearGradient>
<linearGradient gradientUnits="userSpaceOnUse" y2="680.259" x2="608.662" y1="614.27" x1="615.783" id="paint5_linear_1519_111741">
<stop stop-color="#6CB8FF"></stop>
<stop stop-color="#8FC8FF" offset="0.656831"></stop>
</linearGradient>
<linearGradient gradientUnits="userSpaceOnUse" y2="680.259" x2="608.662" y1="614.27" x1="615.783" id="paint6_linear_1519_111741">
<stop stop-color="#6CB8FF"></stop>
<stop stop-color="#8FC8FF" offset="0.656831"></stop>
</linearGradient>
<linearGradient gradientUnits="userSpaceOnUse" y2="435.33" x2="505.705" y1="279.247" x1="547.404" id="paint7_linear_1519_111741">
<stop stop-color="#8DAFCE"></stop>
<stop stop-color="#ABD6FF" offset="0.656831"></stop>
</linearGradient>
<linearGradient gradientUnits="userSpaceOnUse" y2="526.331" x2="352.018" y1="322.681" x1="575.361" id="paint8_linear_1519_111741">
<stop stop-color="#86C4FF" offset="0.193281"></stop>
<stop stop-color="#B1D9FF" offset="0.776625"></stop>
</linearGradient>
<linearGradient gradientUnits="userSpaceOnUse" y2="447.074" x2="502.819" y1="415.603" x1="520.375" id="paint9_linear_1519_111741">
<stop stop-color="#6CB8FF"></stop>
<stop stop-color="#8FC8FF" offset="0.656831"></stop>
</linearGradient>
<linearGradient gradientUnits="userSpaceOnUse" y2="347.522" x2="247.953" y1="283.352" x1="289.69" id="paint10_linear_1519_111741">
<stop stop-color="#6CB8FF"></stop>
<stop stop-color="#8FC8FF" offset="0.656831"></stop>
</linearGradient>
<linearGradient gradientUnits="userSpaceOnUse" y2="581.168" x2="629.467" y1="564.569" x1="626.849" id="paint11_linear_1519_111741">
<stop stop-color="#FFCDA5"></stop>
<stop stop-color="#FFE8D1" offset="1"></stop>
</linearGradient>
<linearGradient gradientUnits="userSpaceOnUse" y2="559.693" x2="651.068" y1="525.732" x1="618.59" id="paint12_linear_1519_111741">
<stop stop-color="#FFF2DF"></stop>
<stop stop-color="#FEE0BC" offset="1"></stop>
</linearGradient>
<linearGradient gradientUnits="userSpaceOnUse" y2="560.927" x2="603.531" y1="524.128" x1="631.431" id="paint13_linear_1519_111741">
<stop stop-color="#9F4326"></stop>
<stop stop-color="#574915" offset="1"></stop>
</linearGradient>
<linearGradient gradientUnits="userSpaceOnUse" y2="642.884" x2="696.563" y1="630.518" x1="699.096" id="paint14_linear_1519_111741">
<stop stop-color="#FEE4C3"></stop>
<stop stop-color="#FFD1AC" offset="1"></stop>
</linearGradient>
<linearGradient gradientUnits="userSpaceOnUse" y2="668.703" x2="593.945" y1="663.58" x1="582.409" id="paint15_linear_1519_111741">
<stop stop-color="#FEE4C3"></stop>
<stop stop-color="#FFD1AC" offset="1"></stop>
</linearGradient>
<linearGradient gradientUnits="userSpaceOnUse" y2="570.212" x2="646.297" y1="660.61" x1="632.555" id="paint16_linear_1519_111741">
<stop stop-color="#6688FF" offset="0.0403741"></stop>
<stop stop-color="#F094FF" offset="1"></stop>
</linearGradient>
<linearGradient gradientUnits="userSpaceOnUse" y2="570.212" x2="646.297" y1="660.61" x1="632.555" id="paint17_linear_1519_111741">
<stop stop-color="#6688FF" offset="0.0403741"></stop>
<stop stop-color="#F094FF" offset="1"></stop>
</linearGradient>
<linearGradient gradientUnits="userSpaceOnUse" y2="570.212" x2="646.297" y1="660.61" x1="632.555" id="paint18_linear_1519_111741">
<stop stop-color="#6688FF" offset="0.0403741"></stop>
<stop stop-color="#F094FF" offset="1"></stop>
</linearGradient>
<linearGradient gradientUnits="userSpaceOnUse" y2="297.282" x2="684.21" y1="303.81" x1="730.514" id="paint19_linear_1519_111741">
<stop stop-color="#6CB8FF"></stop>
<stop stop-color="#8FC8FF" offset="0.656831"></stop>
</linearGradient>
<clipPath id="clip0_1519_111741">
<rect fill="white" height="1024" width="1024"></rect>
</clipPath>
</defs>
</svg>
