<svg xmlns="http://www.w3.org/2000/svg" fill="none" viewBox="0 0 1024 1024" height="1024" width="1024">
<g clip-path="url(#clip0_1515_110877)">
<ellipse fill="url(#paint0_linear_1515_110877)" ry="127.5" rx="467" cy="762.5" cx="506"></ellipse>
<path fill="url(#paint1_linear_1515_110877)" d="M230.457 615.502C230.457 615.502 230.233 614.922 229.928 615.542C227.184 621.122 202.334 681.566 200.362 728.218C200.362 728.218 196.215 755.02 230.965 754.665C259.973 754.37 259.2 729.662 259.099 721.337C258.702 687.573 230.457 615.502 230.457 615.502Z"></path>
<path fill="url(#paint2_linear_1515_110877)" d="M229.664 784.343C229.105 784.343 228.647 783.886 228.647 783.327V631.754C228.647 631.195 229.105 630.737 229.664 630.737C230.223 630.737 230.68 631.195 230.68 631.754V783.327C230.68 783.896 230.223 784.343 229.664 784.343Z"></path>
<path fill="url(#paint3_linear_1515_110877)" d="M869.35 810.661C876.541 808.4 883.517 805.446 889.874 797.176C891.178 795.482 892.404 793.311 891.689 791.283C891.151 789.757 889.594 788.778 888.013 788.529C887.424 788.442 886.827 788.426 886.234 788.48H886.228C885.316 788.574 884.415 788.754 883.536 789.015L883.285 789.089C879.09 790.299 875.093 792.13 871.425 794.524C871.093 794.738 870.698 794.833 870.306 794.792C869.914 794.75 869.548 794.576 869.266 794.296C868.984 794.017 868.804 793.649 868.754 793.252C868.704 792.855 868.789 792.453 868.993 792.111C869.367 791.491 869.803 790.911 870.292 790.38C871.015 789.613 871.807 788.916 872.657 788.299C873.788 787.462 874.994 786.715 876.174 785.951C880.562 783.116 884.719 779.929 888.605 776.42C891.378 773.913 894.091 771.131 895.409 767.607C896.015 765.986 896.291 764.117 895.568 762.547C894.376 759.968 890.999 759.245 888.237 759.78C883.398 760.721 879.532 764.32 876.104 767.908C873.261 770.889 870.075 774.189 865.99 774.372C865.294 774.439 864.594 774.296 863.977 773.963C862.812 773.247 862.512 771.588 862.927 770.271C863.343 768.953 864.304 767.901 865.231 766.89C870.623 761.021 875.928 754.916 879.429 747.725C882.93 740.534 884.481 732.044 882.048 724.409C881.335 722.177 880.263 720.005 878.591 718.383C876.919 716.762 874.575 715.745 872.28 716.056C869.153 716.473 866.798 719.15 865.213 721.915C859.768 731.401 860.101 743.025 858.567 753.891C858.138 756.933 857.514 760.053 855.728 762.557C855.563 762.798 855.35 763 855.101 763.15C853.632 764.013 852.313 762.272 851.761 760.795C849.583 754.95 849.038 748.265 845.139 743.427C843.65 741.585 841.544 740.046 839.197 740.061C836.331 740.081 833.877 742.51 833.04 745.292C832.204 748.074 832.705 751.096 833.601 753.858C835.264 758.98 838.245 763.582 841.759 767.627C843.61 769.763 845.705 771.92 846.261 774.706C846.431 775.653 846.36 776.628 846.054 777.539C845.748 778.45 845.218 779.267 844.513 779.912C844.184 780.202 843.801 780.423 843.386 780.561C842.971 780.699 842.533 780.75 842.098 780.713C841.157 780.626 840.306 780.139 839.484 779.666C839.139 779.467 838.794 779.265 838.447 779.067C837.077 778.276 835.707 777.483 834.336 776.69C830.851 774.674 826.646 772.614 823.018 774.35C821.167 775.238 819.954 776.983 819.383 778.986C818.872 780.804 818.872 782.73 819.383 784.548C820.464 788.328 827.276 798.848 830.086 801.561C833.368 804.729 844.748 818.398 869.35 810.661Z"></path>
<path fill="url(#paint4_linear_1515_110877)" d="M371.209 332.673L381.89 368.891L358.564 375.77L371.78 420.582L324.512 434.522L310.989 389.801L223.514 415.599L214.01 383.371L232.931 230.328L278.585 233.545L262.863 364.626L300.922 353.402L291.657 302.754L333.399 290.444L347.882 339.552L371.209 332.673Z"></path>
<path fill="url(#paint5_linear_1515_110877)" d="M549.48 211.652C575.443 216.726 593.366 230.119 603.252 251.832C613.347 273.585 614.896 302.363 607.898 338.166C600.942 373.759 588.672 399.837 571.089 416.398C553.715 433.001 532.048 438.765 506.085 433.691C480.123 428.617 462.115 415.098 452.061 393.136C442.217 371.214 440.772 342.456 447.729 306.863C454.726 271.06 466.891 244.962 484.224 228.569C501.766 212.217 523.518 206.578 549.48 211.652ZM542.299 248.397C535.18 247.005 529.077 248.204 523.99 251.991C518.902 255.779 514.268 262.807 510.087 273.076C506.116 283.386 502.289 297.962 498.606 316.806C494.923 335.649 492.96 350.699 492.717 361.955C492.724 373.042 494.371 381.298 497.658 386.722C500.945 392.147 506.148 395.555 513.267 396.946C520.385 398.337 526.468 397.244 531.515 393.665C536.602 389.878 541.132 382.829 545.103 372.519C549.325 362.041 553.297 347.275 557.021 328.223C560.745 309.17 562.603 294.1 562.596 283.012C562.84 271.757 561.297 263.521 557.969 258.306C554.641 253.091 549.418 249.788 542.299 248.397Z"></path>
<path fill="url(#paint6_linear_1515_110877)" d="M797.958 458.097L789.41 494.877L765.721 489.371L755.145 534.878L707.144 523.722L717.409 478.142L628.577 457.495L636.184 424.768L728.049 300.909L766.193 326.201L687.931 432.524L726.581 441.507L743.471 392.868L785.861 402.721L774.27 452.591L797.958 458.097Z"></path>
<path fill="#B8D9F6" d="M314 617.18L525.769 740.668V802.966L314 679.512V617.214V617.18Z"></path>
<path fill="#5CA8EA" d="M332.163 645.698L467.957 725.301V735.372L332.163 655.77V645.733V645.698ZM332.163 666.533L467.957 746.136V756.208L332.163 676.605V666.568V666.533ZM480.515 731.877L505.495 746.863V775.035L480.515 760.084V732.05V731.877Z"></path>
<path fill="#99C9F2" d="M710.275 633.688L525.769 740.668V802.965L710.275 695.19V633.688Z"></path>
<path fill="#E0EFFB" d="M710.275 633.688L497.365 512L314 617.179L525.769 740.425L710.275 633.688Z"></path>
<ellipse fill-opacity="0.1" fill="#7D7D7D" ry="15.5" rx="56.5" cy="795.5" cx="458.5"></ellipse>
<path fill="url(#paint7_linear_1515_110877)" d="M468.2 490.866H442.879V517.454H468.2V490.866Z"></path>
<path fill="url(#paint8_linear_1515_110877)" d="M458.915 500.572C473.133 500.572 484.659 487.252 484.659 470.82C484.659 454.388 473.133 441.067 458.915 441.067C444.698 441.067 433.172 454.388 433.172 470.82C433.172 487.252 444.698 500.572 458.915 500.572Z"></path>
<path fill="url(#paint9_linear_1515_110877)" d="M482.208 445.056C484.468 449.332 486.399 455.331 486.399 462.873C486.399 464.449 485.717 464.66 484.479 465.042C482.859 465.544 480.288 466.339 477.05 470.876C476.877 470.7 476.671 470.475 476.435 470.216C474.193 467.757 469.255 462.341 464.316 469.029C460.678 478.266 469.234 484.75 472.638 483.68L472.613 483.711C469.334 487.604 468.292 488.841 461.918 491.514C461.918 491.514 450.809 496.052 439.525 491.426C436.452 490.712 433.071 489.441 428.934 487.185C420.949 479.57 407.177 460 425.569 438.31C425.602 438.291 425.705 438.202 425.874 438.057C428.619 435.706 448.836 418.383 473.537 434.972C474.978 436.121 476.308 437.337 477.48 438.627C478.541 439.592 479.848 441.119 481.13 443.178C481.521 443.791 481.88 444.419 482.208 445.056Z" clip-rule="evenodd" fill-rule="evenodd"></path>
<path fill="#585449" d="M486.436 453.13C473.051 461.416 470.371 463.365 453.673 474.609C428.154 491.794 425.636 489.865 419.657 480.176C409.481 460.649 416.766 439.873 434.436 430.665C452.105 421.457 475.442 425.41 486.436 453.13Z"></path>
<ellipse fill="#585449" transform="rotate(-27.1966 477.622 449.392)" ry="7.42154" rx="28.6554" cy="449.392" cx="477.622"></ellipse>
<rect fill="#FEE4C3" transform="rotate(-0.516593 426.001 776.412)" height="14.5528" width="10.9146" y="776.412" x="426.001"></rect>
<path fill="#7B7B7B" d="M451.836 790.309C452.753 795.248 450.34 798.65 442.438 800.117C434.535 801.584 426.09 803.151 423.305 798.118C423.431 798.337 420.853 794.873 425.222 788.511C425.222 788.511 431.251 791.092 437.742 786.187C444.977 786.264 451.153 786.63 451.836 790.309Z"></path>
<rect fill="#FEE4C3" transform="rotate(-0.260985 472.516 773.625)" height="14.5528" width="10.9146" y="773.625" x="472.516"></rect>
<path fill="#7B7B7B" d="M499.133 788.489C500.027 793.432 496.757 795.964 488.849 797.396C480.94 798.828 472.488 800.358 469.726 795.312C469.85 795.532 467.288 792.056 471.685 785.714C471.685 785.714 477.703 788.322 484.215 783.445C491.45 783.555 498.466 784.807 499.133 788.489Z"></path>
<path fill="#DCDCDC" d="M413.338 621.693C414.154 651.497 415.16 669.678 416.983 703.14C418.805 736.602 419.786 750.726 422.749 781.218L444.771 780.965L449.785 706.858C451.608 682.691 453.43 632.57 453.43 632.57C453.43 632.57 458.897 671.537 462.542 706.858C466.187 742.179 469.103 780.902 469.103 780.902L489.807 780.628C489.807 780.628 493.522 751.474 493.522 703.14C493.522 654.807 493.522 621.696 493.522 621.696L413.338 621.693Z"></path>
<path fill="url(#paint10_linear_1515_110877)" d="M487.287 456.03C490.699 453.81 493.483 456.939 497.582 462.074C501.682 467.208 505.174 473.27 501.488 476.213C497.801 479.156 490.606 476.863 486.506 471.728C472.721 466.465 475.384 451.152 487.287 456.03Z"></path>
<path fill="url(#paint11_linear_1515_110877)" d="M388.691 625.604C384.856 624.238 385.655 620.127 387.251 613.754C388.846 607.38 391.547 600.927 396.123 602.072C400.699 603.218 403.24 610.33 401.644 616.703C405.822 630.856 392.031 638.027 388.691 625.604Z"></path>
<path fill="url(#paint12_linear_1515_110877)" d="M491.432 548.05C491.539 551.126 491.668 554.275 491.856 557.462C493.081 574.615 495.131 592.385 496.339 602.855C496.925 607.931 497.312 611.291 497.312 612.035C497.312 614.256 497.614 615.874 497.848 617.135C498.19 618.973 498.391 620.052 497.312 621.131C455.474 641.144 413.635 630.229 411.816 626.591C410.877 624.713 410.846 610.664 411.568 593.785C407.692 602.743 405.502 608.295 402.772 619.947C402.763 619.327 397.445 614.78 386.47 616.342C384.067 608.916 383.896 603.61 389.765 579.171C395.256 556.305 411.57 520.628 423.646 510.439C433.023 502.528 436.859 501.557 444.006 506.053C444.463 507.045 444.828 508.069 445.11 509.121C448.456 510.807 452.9 511.985 459.111 511.985L459.196 511.968C463.237 511.151 468.221 510.144 470.027 506.531C473.736 505.39 476.773 505.099 479.266 505.538C484.012 505.542 489.097 506.508 491.857 508.348C497.314 511.986 504.586 510.171 508.226 506.531C510.046 502.893 508.226 499.254 504.588 495.616C500.95 491.978 490.037 479.244 490.037 475.606C490.037 472.696 497.314 468.33 500.952 466.511C511.26 474.393 531.877 492.706 531.877 502.893C533.652 508.218 533.695 542.994 491.432 548.05ZM402.763 619.985C402.769 619.975 402.772 619.962 402.772 619.947L402.763 619.985Z" clip-rule="evenodd" fill-rule="evenodd"></path>
<path fill="#FB955B" d="M471.577 506.695C471.577 506.695 469.852 504.928 468.067 504.928C458.45 514.451 447.558 507.833 443.073 503.161C442.905 502.978 441.288 503.16 439.503 504.927C455.213 519.07 467.411 511.999 471.577 506.695Z"></path>
<path fill="url(#paint13_linear_1515_110877)" d="M385.015 477.469C381.576 479.685 379.509 482.398 378.845 485.654C378.151 488.864 378.882 492.142 381.068 495.535L385.948 492.391C384.63 490.346 384.03 488.496 384.148 486.841C384.209 484.894 385.324 483.255 387.415 481.908C389.088 480.83 390.736 480.426 392.264 480.756C393.746 481.117 395.02 482.072 396.068 483.699C396.846 484.908 397.1 486.323 396.953 487.931L396.732 489.323C395.497 493.736 394.959 496.779 395.193 498.47C395.321 500.098 396.001 501.765 397.109 503.485L397.618 504.275L402.591 501.07L402.082 500.28C401.363 499.165 400.937 497.992 400.849 496.733C400.728 495.627 400.84 494.371 401.244 493.059C402.2 489.746 402.723 487.699 402.812 486.918C403.015 484.682 402.392 482.387 400.924 480.109C399.127 477.321 396.76 475.689 393.853 475.26C390.916 474.785 387.99 475.552 385.015 477.469ZM401.698 505.197C400.769 505.796 400.112 506.614 399.881 507.684C399.619 508.708 399.803 509.707 400.432 510.683C401.031 511.613 401.865 512.193 402.935 512.425C404.005 512.656 405.051 512.442 405.981 511.843C406.911 511.244 407.538 510.38 407.799 509.357C408.03 508.287 407.893 507.257 407.264 506.281C406.635 505.305 405.801 504.724 404.761 504.539C403.691 504.308 402.674 504.568 401.698 505.197Z"></path>
</g>
<defs>
<linearGradient gradientUnits="userSpaceOnUse" y2="890" x2="506" y1="635" x1="506" id="paint0_linear_1515_110877">
<stop stop-color="#BDDFFF"></stop>
<stop stop-opacity="0" stop-color="white" offset="0.95892"></stop>
</linearGradient>
<linearGradient gradientUnits="userSpaceOnUse" y2="615.257" x2="229.66" y1="754.678" x1="229.66" id="paint1_linear_1515_110877">
<stop stop-color="#5FB2FF"></stop>
<stop stop-color="#DFF0FF" offset="0.7893"></stop>
</linearGradient>
<linearGradient gradientUnits="userSpaceOnUse" y2="784.347" x2="229.661" y1="630.738" x1="229.661" id="paint2_linear_1515_110877">
<stop stop-color="#DFF0FF"></stop>
<stop stop-color="#A2D2FF" offset="0.818"></stop>
</linearGradient>
<linearGradient gradientUnits="userSpaceOnUse" y2="802.968" x2="847.534" y1="720.042" x1="883.842" id="paint3_linear_1515_110877">
<stop stop-color="#C4E3FF" offset="0.365159"></stop>
<stop stop-color="#5FB2FF" offset="1"></stop>
</linearGradient>
<linearGradient gradientUnits="userSpaceOnUse" y2="154.407" x2="742.451" y1="62.4854" x1="691.606" id="paint4_linear_1515_110877">
<stop stop-color="#6CB8FF"></stop>
<stop stop-color="#A2D2FF" offset="1"></stop>
</linearGradient>
<linearGradient gradientUnits="userSpaceOnUse" y2="336.299" x2="820.492" y1="231.286" x1="817.819" id="paint5_linear_1515_110877">
<stop stop-color="#6CB8FF"></stop>
<stop stop-color="#A2D2FF" offset="1"></stop>
</linearGradient>
<linearGradient gradientUnits="userSpaceOnUse" y2="395.285" x2="819.109" y1="290.243" x1="820.15" id="paint6_linear_1515_110877">
<stop stop-color="#6CB8FF"></stop>
<stop stop-color="#A2D2FF" offset="1"></stop>
</linearGradient>
<linearGradient gradientUnits="userSpaceOnUse" y2="517.454" x2="455.54" y1="494.302" x1="455.54" id="paint7_linear_1515_110877">
<stop stop-color="#FFCDA5"></stop>
<stop stop-color="#FFE8D1" offset="1"></stop>
</linearGradient>
<linearGradient gradientUnits="userSpaceOnUse" y2="497.231" x2="485.08" y1="441.067" x1="454.958" id="paint8_linear_1515_110877">
<stop stop-color="#FFF2DF"></stop>
<stop stop-color="#FEE0BC" offset="1"></stop>
</linearGradient>
<linearGradient gradientUnits="userSpaceOnUse" y2="486.775" x2="424.514" y1="447.785" x1="473.385" id="paint9_linear_1515_110877">
<stop stop-color="#777CA7"></stop>
<stop stop-color="#636681" offset="1"></stop>
</linearGradient>
<linearGradient gradientUnits="userSpaceOnUse" y2="461.107" x2="496.81" y1="471.782" x1="483.439" id="paint10_linear_1515_110877">
<stop stop-color="#FEE4C3"></stop>
<stop stop-color="#FFD1AC" offset="1"></stop>
</linearGradient>
<linearGradient gradientUnits="userSpaceOnUse" y2="614.954" x2="386.95" y1="619.109" x1="403.547" id="paint11_linear_1515_110877">
<stop stop-color="#FEE4C3"></stop>
<stop stop-color="#FFD1AC" offset="1"></stop>
</linearGradient>
<linearGradient gradientUnits="userSpaceOnUse" y2="643.6" x2="444.225" y1="452.554" x1="508.79" id="paint12_linear_1515_110877">
<stop stop-color="#FFE194"></stop>
<stop stop-color="#FFBF84" offset="1"></stop>
</linearGradient>
<linearGradient gradientUnits="userSpaceOnUse" y2="508.233" x2="385.202" y1="476.52" x1="390.285" id="paint13_linear_1515_110877">
<stop stop-color="#6CB8FF"></stop>
<stop stop-color="#8FC8FF" offset="0.656831"></stop>
</linearGradient>
<clipPath id="clip0_1515_110877">
<rect fill="white" height="1024" width="1024"></rect>
</clipPath>
</defs>
</svg>
