<svg xmlns="http://www.w3.org/2000/svg" fill="none" viewBox="0 0 1024 1024" height="1024" width="1024">
<g clip-path="url(#clip0_1512_110638)">
<ellipse fill="url(#paint0_linear_1512_110638)" ry="127.5" rx="467" cy="762.5" cx="506"></ellipse>
<path fill="url(#paint1_linear_1512_110638)" d="M230.457 615.502C230.457 615.502 230.233 614.922 229.928 615.542C227.184 621.122 202.334 681.566 200.362 728.218C200.362 728.218 196.215 755.02 230.965 754.665C259.973 754.37 259.2 729.662 259.099 721.337C258.702 687.573 230.457 615.502 230.457 615.502Z"></path>
<path fill="url(#paint2_linear_1512_110638)" d="M229.664 784.343C229.105 784.343 228.647 783.886 228.647 783.327V631.754C228.647 631.195 229.105 630.737 229.664 630.737C230.223 630.737 230.68 631.195 230.68 631.754V783.327C230.68 783.896 230.223 784.343 229.664 784.343Z"></path>
<path fill="url(#paint3_linear_1512_110638)" d="M869.35 810.661C876.541 808.4 883.517 805.446 889.874 797.176C891.178 795.482 892.404 793.311 891.689 791.283C891.151 789.757 889.594 788.778 888.013 788.529C887.424 788.442 886.827 788.426 886.234 788.48H886.228C885.316 788.574 884.415 788.754 883.536 789.015L883.285 789.089C879.09 790.299 875.093 792.13 871.425 794.524C871.093 794.738 870.698 794.833 870.306 794.792C869.914 794.75 869.548 794.576 869.266 794.296C868.984 794.017 868.804 793.649 868.754 793.252C868.704 792.855 868.789 792.453 868.993 792.111C869.367 791.491 869.803 790.911 870.292 790.38C871.015 789.613 871.807 788.916 872.657 788.299C873.788 787.462 874.994 786.715 876.174 785.951C880.562 783.116 884.719 779.929 888.605 776.42C891.378 773.913 894.091 771.131 895.409 767.607C896.015 765.986 896.291 764.117 895.568 762.547C894.376 759.968 890.999 759.245 888.237 759.78C883.398 760.721 879.532 764.32 876.104 767.908C873.261 770.889 870.075 774.189 865.99 774.372C865.294 774.439 864.594 774.296 863.977 773.963C862.812 773.247 862.512 771.588 862.927 770.271C863.343 768.953 864.304 767.901 865.231 766.89C870.623 761.021 875.928 754.916 879.429 747.725C882.93 740.534 884.481 732.044 882.048 724.409C881.335 722.177 880.263 720.005 878.591 718.383C876.919 716.762 874.575 715.745 872.28 716.056C869.153 716.473 866.798 719.15 865.213 721.915C859.768 731.401 860.101 743.025 858.567 753.891C858.138 756.933 857.514 760.053 855.728 762.557C855.563 762.798 855.35 763 855.101 763.15C853.632 764.013 852.313 762.272 851.761 760.795C849.583 754.95 849.038 748.265 845.139 743.427C843.65 741.585 841.544 740.046 839.197 740.061C836.331 740.081 833.877 742.51 833.04 745.292C832.204 748.074 832.705 751.096 833.601 753.858C835.264 758.98 838.245 763.582 841.759 767.627C843.61 769.763 845.705 771.92 846.261 774.706C846.431 775.653 846.36 776.628 846.054 777.539C845.748 778.45 845.218 779.267 844.513 779.912C844.184 780.202 843.801 780.423 843.386 780.561C842.971 780.699 842.533 780.75 842.098 780.713C841.157 780.626 840.306 780.139 839.484 779.666C839.139 779.467 838.794 779.265 838.447 779.067C837.077 778.276 835.707 777.483 834.336 776.69C830.851 774.674 826.646 772.614 823.018 774.35C821.167 775.238 819.954 776.983 819.383 778.986C818.872 780.804 818.872 782.73 819.383 784.548C820.464 788.328 827.276 798.848 830.086 801.561C833.368 804.729 844.748 818.398 869.35 810.661Z"></path>
<path fill="url(#paint4_linear_1512_110638)" d="M649.638 740.684C650.38 738.632 650.88 736.312 651.021 733.581C651.097 732.138 650.946 730.46 649.772 729.604C648.888 728.959 647.648 729.008 646.674 729.474C646.314 729.65 645.975 729.869 645.667 730.126L645.663 730.129C645.193 730.529 644.761 730.974 644.373 731.455L644.261 731.592C642.394 733.869 640.875 736.417 639.754 739.152C639.651 739.399 639.468 739.602 639.235 739.729C639.001 739.856 638.73 739.899 638.467 739.851C638.203 739.802 637.962 739.666 637.782 739.464C637.603 739.262 637.495 739.006 637.478 738.737C637.448 738.249 637.468 737.759 637.537 737.276C637.644 736.573 637.817 735.882 638.053 735.213C638.302 734.488 638.6 733.776 638.897 733.067C638.968 732.898 639.038 732.73 639.108 732.561C640.46 729.305 641.548 725.941 642.363 722.501C642.944 720.045 643.385 717.458 642.767 714.99C642.483 713.856 641.92 712.709 640.917 712.11C639.267 711.129 637.113 712.017 635.783 713.37C633.455 715.744 632.686 719.226 632.155 722.535C631.718 725.282 631.212 728.339 629.013 730.001C628.651 730.304 628.208 730.492 627.737 730.543C626.815 730.589 626.013 729.779 625.739 728.886C625.465 727.994 625.596 727.04 625.724 726.122C626.471 720.792 627.08 715.364 626.27 710.019C625.46 704.675 623.069 699.352 618.792 696.028C617.541 695.056 616.113 694.256 614.563 693.991C613.012 693.727 611.32 694.056 610.164 695.106C608.586 696.534 608.303 698.925 608.482 701.071C608.942 706.634 611.7 711.617 614.449 716.583C615.34 718.193 616.23 719.801 617.041 721.426C617.968 723.285 618.816 725.262 618.783 727.34C618.784 727.537 618.743 727.731 618.662 727.909C618.177 728.952 616.777 728.486 615.904 727.874C614.781 727.084 613.72 726.179 612.661 725.276C610.467 723.405 608.281 721.54 605.57 720.728C604.037 720.27 602.277 720.217 600.979 721.122C599.394 722.229 598.961 724.52 599.562 726.389C600.163 728.259 601.599 729.751 603.155 730.948C606.042 733.166 609.462 734.591 612.964 735.502C613.144 735.549 613.325 735.595 613.507 735.641C615.193 736.072 616.935 736.516 618.178 737.726C618.635 738.189 618.969 738.759 619.148 739.384C619.328 740.008 619.346 740.666 619.201 741.294C619.13 741.582 619.001 741.852 618.824 742.087C618.646 742.322 618.422 742.518 618.166 742.664C617.61 742.975 616.95 743.029 616.312 743.079C616.226 743.086 616.14 743.092 616.053 743.099C615.871 743.113 615.689 743.126 615.507 743.142C614.442 743.224 613.378 743.306 612.312 743.388C609.603 743.596 606.477 744.055 605.127 746.409C604.438 747.611 604.433 749.047 604.883 750.381C605.296 751.589 606.034 752.662 607.014 753.48C608.305 754.547 611.561 756.243 614.443 757.461C618.506 760.98 630.194 760.946 644.502 760.905C646.078 760.9 647.685 760.896 649.318 760.896C650.95 760.896 652.558 760.9 654.133 760.905C671.968 760.956 685.732 760.996 685.732 754.158C685.732 746.756 669.602 740.748 649.638 740.684Z" clip-rule="evenodd" fill-rule="evenodd"></path>
<path fill="url(#paint5_linear_1512_110638)" d="M482.769 590.289C401.431 539.295 363.638 418.638 405.721 351.512C447.805 284.386 502.622 325.251 583.96 376.245C665.298 427.239 787.123 483.321 745.039 550.447C702.955 617.573 564.107 641.283 482.769 590.289Z"></path>
<path fill="#E4F2FF" d="M654.554 338.646C650.361 334.455 649.745 327.859 653.436 322.833C657.67 317.065 665.97 315.549 671.974 319.445C677.978 323.341 679.412 331.175 675.178 336.943C671.487 341.969 664.71 343.766 659.054 341.566L562.416 495.524L638.48 374.347C725.629 432.464 773.289 509.374 745.197 547.635C716.614 586.564 620.436 570.743 530.377 512.297C440.318 453.852 390.482 374.914 419.064 335.985C447.157 297.723 540.547 312.351 629.246 368.354L534.797 479.244L654.554 338.646L654.554 338.646Z"></path>
<path fill="url(#paint6_linear_1512_110638)" d="M671.974 319.448C677.979 323.344 679.413 331.179 675.179 336.946C671.488 341.972 664.71 343.77 659.055 341.57L561.684 496.696C561.478 497.024 561.26 497.345 561.03 497.658C555.779 504.809 545.488 506.689 538.044 501.858C537.718 501.646 537.4 501.424 537.092 501.19C530.048 495.853 529.02 486.029 534.797 479.247L654.554 338.65C650.361 334.458 649.745 327.862 653.436 322.836C657.67 317.068 665.97 315.552 671.974 319.448Z"></path>
<path fill="url(#paint7_linear_1512_110638)" d="M466.753 572.163C467.68 564.646 474.066 559 481.64 559H523.621C530.896 559 537.122 564.221 538.391 571.384L560.881 698.384C562.508 707.572 555.441 716 546.11 716H465.965C456.952 716 449.974 708.108 451.078 699.163L466.753 572.163Z"></path>
<path fill="#76BCFF" d="M491 585.5C491 588.815 492.37 591.995 494.808 594.339C497.246 596.683 500.552 598 504 598C507.448 598 510.754 596.683 513.192 594.339C515.63 591.995 517 588.815 517 585.5C517 582.185 515.63 579.005 513.192 576.661C510.754 574.317 507.448 573 504 573C500.552 573 497.246 574.317 494.808 576.661C492.37 579.005 491 582.185 491 585.5Z"></path>
<path fill="#6CB8FF" d="M753.454 221.204C730.045 203.303 701.078 195.167 671.524 198.072C667.037 198.402 663.781 202.526 664.111 207.013C664.659 211.672 668.784 214.928 673.443 214.38C697.193 212.129 720.929 218.427 740.379 232.174L753.454 221.204ZM724.493 245.504C710.017 236.559 693.209 232.429 675.947 233.962C671.456 234.298 668.205 238.416 668.58 243.295C668.91 247.781 673.034 251.037 677.521 250.708C689.077 249.631 700.608 251.856 710.87 256.935L724.493 245.504ZM730.188 271.731L742.91 261.056C752.932 272.492 759.481 286.559 761.872 301.792C762.588 306.238 759.556 310.529 754.897 311.078C752.567 311.352 750.141 310.848 748.407 309.48C746.886 308.279 745.666 306.26 745.219 304.149C743.328 291.908 738.132 280.747 730.188 271.731ZM696.899 268.657C691.478 267.004 685.754 266.339 680.004 266.748C677.834 266.912 675.817 267.924 674.388 269.565C672.959 271.206 672.235 273.344 672.372 275.516C672.536 277.685 673.548 279.703 675.189 281.131C676.458 282.237 678.025 282.92 679.675 283.11L696.899 268.657ZM705.184 292.711L717.914 282.03C723.786 288.522 727.729 296.507 729.206 305.243C729.927 309.683 726.89 313.98 722.45 314.701C719.952 315.189 717.526 314.685 715.792 313.316C714.271 312.116 713.27 310.269 712.823 308.158C711.827 302.343 709.155 296.983 705.184 292.711ZM758.145 248.273L770.86 237.604C785.372 254.428 794.748 275.122 797.98 297.542C798.696 301.988 795.445 306.107 790.999 306.823C789.868 307.051 788.7 307.027 787.579 306.751C786.458 306.476 785.412 305.956 784.515 305.23C782.994 304.029 781.774 302.01 781.327 299.899C778.789 280.662 770.659 262.747 758.145 248.273Z" clip-rule="evenodd" fill-rule="evenodd"></path>
<path fill="#74BCFF" d="M767.513 214.199C770.961 211.307 776.101 211.756 778.994 215.204C781.887 218.651 781.437 223.791 777.989 226.684L678.909 309.819C675.461 312.712 670.321 312.262 667.429 308.815C664.536 305.367 664.985 300.227 668.433 297.334L767.513 214.199Z"></path>
<ellipse fill-opacity="0.1" fill="#7D7D7D" ry="15.5" rx="56.5" cy="736.5" cx="415.5"></ellipse>
<path fill="url(#paint8_linear_1512_110638)" d="M424.233 578.29L448.029 579.842L446.453 604.008L422.657 602.456L424.233 578.29Z"></path>
<path fill="url(#paint9_linear_1512_110638)" d="M428.34 586.203C415.383 583.844 407.087 569.809 409.81 554.856C412.533 539.903 425.245 529.695 438.201 532.054C451.158 534.414 459.454 548.449 456.731 563.402C454.008 578.354 441.297 588.563 428.34 586.203Z"></path>
<path fill="url(#paint10_linear_1512_110638)" d="M440.693 563.215C439.513 562.204 438.063 561.057 436.453 559.795C429.51 554.811 421.876 551.951 416.867 550.075C413.886 548.958 411.835 548.19 411.411 547.529C410.493 546.098 412.295 533.795 420.611 527.736C422.22 526.303 424.101 525.055 426.151 523.955C451.401 512.942 466.942 532.074 469.052 534.671L469.052 534.671C469.182 534.831 469.261 534.928 469.288 534.952C469.333 535.233 469.377 535.513 469.419 535.791C470.908 537.507 471.872 538.931 472.32 539.593C472.474 539.82 472.567 539.958 472.599 539.985C476.081 563.734 468.836 571.809 459.995 577.981C453.705 582.088 448.956 580.821 448.133 580.602C448.034 580.575 447.992 580.564 448.012 580.579C448.012 580.579 444.227 578.604 443.761 574.925C446.684 576.464 454.692 572.931 452.91 563.914C449.521 557.004 444.125 561.118 441.674 562.986C441.417 563.182 441.192 563.353 441.006 563.485C440.92 563.388 440.832 563.292 440.742 563.196C440.731 563.204 440.72 563.212 440.709 563.22C440.708 563.222 440.707 563.225 440.706 563.227C440.701 563.223 440.697 563.219 440.693 563.215Z" clip-rule="evenodd" fill-rule="evenodd"></path>
<rect fill="#FEE4C3" transform="matrix(-0.997157 -0.0753565 -0.0753565 0.997157 382.844 747.669)" height="13.473" width="10.1048"></rect>
<path fill="#7B7B7B" d="M358.373 765.884C358.86 770.509 364.488 770.32 371.888 769.54C379.288 768.759 387.197 767.925 388.342 762.724C388.288 762.952 389.663 759.198 384.109 754.703C384.109 754.703 379.438 758.583 372.385 755.939C365.984 757.914 358.009 762.439 358.373 765.884Z"></path>
<rect fill="#FEE4C3" transform="matrix(-0.997483 -0.0709073 -0.0709073 0.997483 362.142 736.09)" height="13.473" width="10.1048"></rect>
<path fill="#7B7B7B" d="M335.98 756.028C336.529 760.646 342.154 760.383 349.543 759.505C356.932 758.627 364.828 757.688 365.905 752.473C365.854 752.701 367.18 748.929 361.566 744.508C361.566 744.508 356.947 748.449 349.86 745.899C343.486 747.958 335.571 752.588 335.98 756.028Z"></path>
<path fill="url(#paint11_linear_1512_110638)" d="M423.025 591.506C423.025 591.506 410.828 593.884 404.702 600.984C394.607 612.688 386.369 634.176 386.369 634.176C386.369 634.176 384.881 640.882 378.059 649.62C370.637 659.125 368.362 660.092 368.362 660.092C368.362 660.092 378.684 665.937 376.398 666.04C373.609 666.166 361.761 673.894 361.761 673.894L391.571 684.068C391.571 684.068 367.586 681.162 380.933 677.689C390.902 675.092 396.353 664.714 396.353 664.714L423.025 591.506Z" clip-rule="evenodd" fill-rule="evenodd"></path>
<path fill="url(#paint12_linear_1512_110638)" d="M422.864 590.004C430.507 602.11 441.762 596.386 446.434 592.011C446.989 592.099 450.79 594.671 455.111 601.895C461.86 613.179 468.081 664.714 460.146 703.412C434.269 701.61 371.33 704.547 375.044 698.317C379.686 690.53 391.68 636.201 395.97 619.841C397.677 613.329 408.757 592.894 422.864 590.004Z"></path>
<path fill="#DCDCDC" d="M458.085 703.055C458.085 703.055 453.474 733.754 439.286 736.348C439.286 736.348 415.198 743.662 399.994 711.164L387.006 749.607C386.809 750.187 386.447 750.679 385.972 751.014C385.497 751.348 384.933 751.507 384.363 751.467C383.674 751.417 382.827 751.344 381.878 751.221C379.443 750.932 377.032 750.41 374.673 749.662C372.152 748.912 369.778 747.642 367.681 745.92C367.123 745.438 366.607 744.898 366.141 744.31C366.141 744.31 365.475 744.124 364.393 743.791C363.632 743.547 362.638 743.246 361.54 742.894C359.352 742.181 356.729 741.282 354.444 740.37C352.568 739.782 350.8 738.826 349.227 737.549C347.324 735.138 338.646 636.699 367.706 630.543C367.706 630.543 374.674 629.7 380.734 639.975C380.813 640.106 380.896 640.246 380.976 640.385C381.345 640.334 381.711 640.261 382.071 640.165C383.664 639.743 385.636 638.934 385.636 638.934C385.636 638.934 396.389 627.95 405.212 640.971C414.034 653.992 424.729 697.39 426.735 700.668L458.085 703.055Z"></path>
<path fill="#D5D5D5" d="M383.294 639.867C382.3 646.366 369.472 737.828 367.771 745.954C367.167 745.474 366.609 744.936 366.107 744.348C366.107 744.348 365.382 744.168 364.205 743.843L381.688 640.403L383.294 639.867Z"></path>
<path fill="#FB955B" d="M419.171 591.231C419.171 591.231 421.097 589.83 422.761 590.093C430.309 600.467 441.44 595.84 446.313 592.102C446.497 591.955 447.977 592.364 449.378 594.29C432.64 605.29 422.266 596.834 419.171 591.231Z"></path>
<path fill="url(#paint13_linear_1512_110638)" d="M375.872 660.427C374.165 663.788 370.484 662.569 364.82 660.352C359.155 658.135 353.548 654.894 355.14 650.827C356.731 646.76 363.561 645.265 369.226 647.482C382.714 645.315 387.672 658.825 375.872 660.427Z"></path>
<path fill="url(#paint14_linear_1512_110638)" d="M417.81 590.001C406.499 580.249 379.859 598.546 364.26 608.386C356.208 613.466 327.318 637.604 334.629 647.299C340.478 655.056 348.731 658.366 363.189 659.615L369.972 647.299C361.588 640.486 361.623 643.027 356.734 639.172C357.624 638.453 360.336 632.025 368.009 630.52C376.398 631.056 429.591 601.782 417.81 590.001Z"></path>
<path fill="url(#paint15_linear_1512_110638)" d="M379.941 652.699C381.543 649.288 385.26 650.391 390.99 652.431C396.721 654.471 402.427 657.536 400.962 661.651C399.497 665.765 392.717 667.471 386.986 665.431C373.572 668.017 368.196 654.668 379.941 652.699Z"></path>
<path fill="url(#paint16_linear_1512_110638)" d="M468.031 616.479C468.031 598.277 453.966 596.307 449.405 594.64C447.263 595.176 445.193 596.782 443.515 598.924C434.527 610.393 424.347 643.346 418.994 653.611C412.508 651.845 399.398 652.002 388.791 652.047L384.43 667.193C396.703 669.498 415.351 673.742 425.063 673.96C437.204 674.233 468.031 626 468.031 616.479Z"></path>
<path fill="#585449" d="M411.579 541.285C423.892 548.007 428.24 550.276 443.645 559.47C467.188 573.52 469.23 572.916 474.079 564.004C482.184 546.133 476.888 528.271 460.718 520.936C444.547 513.602 420.014 516.084 411.579 541.285Z"></path>
<ellipse fill="#585449" transform="matrix(-0.91306 -0.407826 -0.407826 0.91306 420.568 538.349)" ry="6.61376" rx="25.5364"></ellipse>
<ellipse fill="#FFE9CD" transform="matrix(0.824536 0.565809 0.565809 -0.824536 446.586 567.319)" ry="7.23132" rx="6.5115"></ellipse>
<path fill="url(#paint17_linear_1512_110638)" d="M246.983 541.321C249.054 535.667 258.619 534.058 264.485 534.262C262.987 551.826 244.33 551.459 235.848 550.163C238.643 549.571 244.933 546.919 246.983 541.321Z"></path>
<path stroke-width="0.3" stroke="url(#paint18_linear_1512_110638)" d="M262.648 536.135C259.497 540.098 250.913 547.542 238.409 550.06"></path>
<path stroke="url(#paint19_linear_1512_110638)" d="M313.358 444C314.139 463.496 306.206 508.307 268.228 531.587"></path>
<path stroke="url(#paint20_linear_1512_110638)" d="M281.992 468.265C281.112 479.378 278.486 492.629 268.982 493.4C262.005 493.966 266.968 484.464 270.798 487.754C274.628 491.043 272.05 503.184 253.008 506.736"></path>
<path stroke="url(#paint21_linear_1512_110638)" d="M324.732 489.884C323.294 499.16 317.391 518.975 305.281 524.026"></path>
</g>
<defs>
<linearGradient gradientUnits="userSpaceOnUse" y2="890" x2="506" y1="635" x1="506" id="paint0_linear_1512_110638">
<stop stop-color="#BDDFFF"></stop>
<stop stop-opacity="0" stop-color="white" offset="0.95892"></stop>
</linearGradient>
<linearGradient gradientUnits="userSpaceOnUse" y2="615.257" x2="229.66" y1="754.678" x1="229.66" id="paint1_linear_1512_110638">
<stop stop-color="#5FB2FF"></stop>
<stop stop-color="#DFF0FF" offset="0.7893"></stop>
</linearGradient>
<linearGradient gradientUnits="userSpaceOnUse" y2="784.347" x2="229.661" y1="630.738" x1="229.661" id="paint2_linear_1512_110638">
<stop stop-color="#DFF0FF"></stop>
<stop stop-color="#A2D2FF" offset="0.818"></stop>
</linearGradient>
<linearGradient gradientUnits="userSpaceOnUse" y2="802.968" x2="847.534" y1="720.042" x1="883.842" id="paint3_linear_1512_110638">
<stop stop-color="#C4E3FF" offset="0.365159"></stop>
<stop stop-color="#5FB2FF" offset="1"></stop>
</linearGradient>
<linearGradient gradientUnits="userSpaceOnUse" y2="696.911" x2="605.494" y1="778.74" x1="649.318" id="paint4_linear_1512_110638">
<stop stop-color="#97CDFF" offset="0.568288"></stop>
<stop stop-color="#5FB2FF" offset="1"></stop>
</linearGradient>
<linearGradient gradientUnits="userSpaceOnUse" y2="331.974" x2="590.881" y1="630.376" x1="671.219" id="paint5_linear_1512_110638">
<stop stop-color="#6CB8FF"></stop>
<stop stop-color="#8FC8FF" offset="0.656831"></stop>
</linearGradient>
<linearGradient gradientUnits="userSpaceOnUse" y2="480.086" x2="582.555" y1="332.056" x1="629.018" id="paint6_linear_1512_110638">
<stop stop-color="#6CB8FF"></stop>
<stop stop-color="#8FC8FF" offset="0.656831"></stop>
</linearGradient>
<linearGradient gradientUnits="userSpaceOnUse" y2="658.538" x2="454.341" y1="559" x1="564" id="paint7_linear_1512_110638">
<stop stop-color="#ACD7FF"></stop>
<stop stop-color="#8FC8FF" offset="0.886002"></stop>
</linearGradient>
<linearGradient gradientUnits="userSpaceOnUse" y2="603.232" x2="434.555" y1="582.189" x1="435.928" id="paint8_linear_1512_110638">
<stop stop-color="#FFCDA5"></stop>
<stop stop-color="#FFE8D1" offset="1"></stop>
</linearGradient>
<linearGradient gradientUnits="userSpaceOnUse" y2="578.865" x2="405.105" y1="532.711" x1="441.808" id="paint9_linear_1512_110638">
<stop stop-color="#FFF2DF"></stop>
<stop stop-color="#FEE0BC" offset="1"></stop>
</linearGradient>
<linearGradient gradientUnits="userSpaceOnUse" y2="577.621" x2="461.536" y1="535.064" x1="424.947" id="paint10_linear_1512_110638">
<stop stop-color="#777CA7"></stop>
<stop stop-color="#636681" offset="1"></stop>
</linearGradient>
<linearGradient gradientUnits="userSpaceOnUse" y2="713.355" x2="420.065" y1="580.488" x1="379.689" id="paint11_linear_1512_110638">
<stop stop-color="#FFE194"></stop>
<stop stop-color="#FFBF84" offset="1"></stop>
</linearGradient>
<linearGradient gradientUnits="userSpaceOnUse" y2="713.355" x2="420.065" y1="580.488" x1="379.689" id="paint12_linear_1512_110638">
<stop stop-color="#FFE194"></stop>
<stop stop-color="#FFBF84" offset="1"></stop>
</linearGradient>
<linearGradient gradientUnits="userSpaceOnUse" y2="660.769" x2="365.887" y1="646.019" x1="371.66" id="paint13_linear_1512_110638">
<stop stop-color="#FEE4C3"></stop>
<stop stop-color="#FFD1AC" offset="1"></stop>
</linearGradient>
<linearGradient gradientUnits="userSpaceOnUse" y2="674.003" x2="391.429" y1="574.441" x1="416.233" id="paint14_linear_1512_110638">
<stop stop-color="#FFE194"></stop>
<stop stop-color="#FFBF84" offset="1"></stop>
</linearGradient>
<linearGradient gradientUnits="userSpaceOnUse" y2="652.047" x2="389.911" y1="666.97" x1="384.599" id="paint15_linear_1512_110638">
<stop stop-color="#FEE4C3"></stop>
<stop stop-color="#FFD1AC" offset="1"></stop>
</linearGradient>
<linearGradient gradientUnits="userSpaceOnUse" y2="681.248" x2="423.438" y1="588.247" x1="456.526" id="paint16_linear_1512_110638">
<stop stop-color="#FFE194"></stop>
<stop stop-color="#FFBF84" offset="1"></stop>
</linearGradient>
<linearGradient gradientUnits="userSpaceOnUse" y2="529.499" x2="249.067" y1="541.083" x1="265.477" id="paint17_linear_1512_110638">
<stop stop-color="#6CB8FF"></stop>
<stop stop-color="#8FC8FF" offset="0.656831"></stop>
</linearGradient>
<linearGradient gradientUnits="userSpaceOnUse" y2="531.15" x2="256.483" y1="539.611" x1="263.774" id="paint18_linear_1512_110638">
<stop stop-color="#B2DAFF"></stop>
<stop stop-color="#88C5FF" offset="1"></stop>
</linearGradient>
<linearGradient gradientUnits="userSpaceOnUse" y2="504.433" x2="254.612" y1="446.069" x1="296.681" id="paint19_linear_1512_110638">
<stop stop-color="#B2DAFF"></stop>
<stop stop-color="#88C5FF" offset="1"></stop>
</linearGradient>
<linearGradient gradientUnits="userSpaceOnUse" y2="503.719" x2="252.29" y1="469.415" x1="266.148" id="paint20_linear_1512_110638">
<stop stop-color="#B2DAFF"></stop>
<stop stop-color="#88C5FF" offset="1"></stop>
</linearGradient>
<linearGradient gradientUnits="userSpaceOnUse" y2="493.982" x2="287.401" y1="487.928" x1="318.308" id="paint21_linear_1512_110638">
<stop stop-color="#B2DAFF"></stop>
<stop stop-color="#88C5FF" offset="1"></stop>
</linearGradient>
<clipPath id="clip0_1512_110638">
<rect fill="white" height="1024" width="1024"></rect>
</clipPath>
</defs>
</svg>
