<svg t="1688898520967" class="icon" viewBox="0 0 1024 1024" version="1.1" xmlns="http://www.w3.org/2000/svg" p-id="2433" width="64" height="64"><path d="M853.344 213.344c0-70.4-57.6-128-128-128s-128 57.6-128 128c0 55.456 34.144 102.4 83.2 119.456-14.944 61.856-121.6 108.8-211.2 147.2-38.4 17.056-76.8 34.144-106.656 51.2v-198.4c49.056-17.056 85.344-64 85.344-119.456 0-70.4-57.6-128-128-128s-128 57.6-128 128c0 55.456 36.256 102.4 85.344 119.456v356.256c-49.056 17.056-85.344 64-85.344 119.456 0 70.4 57.6 128 128 128s128-57.6 128-128c0-55.456-36.256-102.4-85.344-119.456V640c4.256-21.344 93.856-59.744 140.8-81.056 119.456-51.2 253.856-110.944 264.544-224 49.056-17.056 85.344-66.144 85.344-121.6zM320 170.656c23.456 0 42.656 19.2 42.656 42.656s-19.2 42.656-42.656 42.656-42.656-19.2-42.656-42.656 19.2-42.656 42.656-42.656z m0 682.688c-23.456 0-42.656-19.2-42.656-42.656s19.2-42.656 42.656-42.656 42.656 19.2 42.656 42.656-19.2 42.656-42.656 42.656zM725.344 256c-23.456 0-42.656-19.2-42.656-42.656s19.2-42.656 42.656-42.656S768 189.888 768 213.344 748.8 256 725.344 256z" p-id="2434"></path></svg>